<svg width="104" height="27" viewBox="0 0 104 27" fill="none" xmlns="http://www.w3.org/2000/svg">
<g clip-path="url(#clip0_2043_1182)">
<g clip-path="url(#clip1_2043_1182)">
<path d="M102.24 17.9711C101.919 17.7436 101.666 17.7116 101.456 18.1451C97.8592 25.7849 91.801 21.9711 92.4075 22.3058C93.754 21.6994 97.2857 18.9246 96.7553 15.0779C96.4357 12.7263 94.383 11.6863 92.1988 12.0653C88.3916 12.7159 87.0009 16.7469 87.7071 20.3124C87.8284 20.9302 88.0493 21.4286 88.2806 21.9269C83.9892 25.3617 82.2788 18.8607 82.0795 18.0802C82.0692 18.037 85.4015 15.3167 86.3286 8.82507C87.299 2.03062 85.0921 0.783809 82.8298 0.827062C78.6484 0.903225 77.522 9.47574 79.0339 16.6162C78.9126 16.6491 78.3174 16.9745 77.3687 17.0064C76.6842 14.8936 73.7599 13.0403 72.9983 13.7559C71.0895 15.5443 73.4618 19.0327 75.1393 19.3045C74.1341 25.3834 67.8456 23.878 69.0153 16.2589C71.0566 12.5307 72.6231 6.97178 72.3363 3.62251C72.2367 2.44152 71.3425 0.848688 69.3237 0.924851C65.4394 1.07624 65.021 9.64875 65.4723 15.7389C65.4507 15.5875 65.2297 16.4761 63.6406 16.9199C63.2655 14.872 59.9002 12.8024 59.1066 13.7991C57.6266 15.6524 60.1983 18.9584 61.4122 19.185C60.408 25.2649 54.1185 23.7586 55.2872 16.1404C57.3408 12.4122 58.896 6.86365 58.6205 3.51532C58.5218 2.33339 57.6266 0.740556 55.6079 0.816719C51.7236 0.968104 51.3042 9.54062 51.7565 15.6299C51.7348 15.4785 51.5139 16.3999 49.8581 16.8334C49.8045 14.1677 46.427 12.9538 45.6108 13.7991C44.1647 15.3167 45.9418 18.4272 47.5863 19.185C46.5821 25.2649 40.2917 23.7586 41.4614 16.1404C43.5027 12.4122 45.0702 6.85236 44.7834 3.50403C44.695 2.33339 43.8008 0.740556 41.7811 0.816719C37.8977 0.968104 37.5884 9.97314 38.0416 16.0633C36.7609 21.4502 32.4686 28.1694 33.0308 14.699C33.0863 13.7559 33.1418 13.3976 32.667 13.0403C32.3031 12.7705 31.4869 12.8993 31.045 12.9106C30.5043 12.9331 30.3614 13.2463 30.2514 13.7126C29.9749 14.9265 29.9195 16.1075 29.8753 17.722C29.8536 18.4808 29.7878 18.8277 29.4888 19.8573C29.1908 20.8869 27.5142 22.7609 26.5871 22.4469C25.3074 22.0134 25.7258 18.4704 25.9694 16.0314C26.1678 14.1028 25.5284 13.2472 23.8951 12.9322C22.9351 12.7376 22.3502 12.7705 21.3573 12.4555C20.4076 12.1631 20.1979 10.4066 18.1904 10.9924C17.0866 11.3177 17.7927 13.6036 17.5275 15.3055C16.2262 23.6608 13.5229 23.8883 12.2639 19.8348C17.914 6.22426 13.8868 0.859972 11.5361 0.859972C9.08667 0.859972 6.2837 2.51768 7.46375 13.1381C6.89112 12.9764 6.71435 12.8889 6.07402 12.8889C2.51037 12.8777 0.0712891 15.7173 0.0712891 19.217C0.0712891 22.7177 2.51037 25.5573 6.08531 25.5573C8.19247 25.5573 9.67153 24.6152 10.797 23.1624C11.5258 24.192 12.419 25.5789 14.0523 25.5141C18.9069 25.3298 20.3192 15.5443 20.4857 14.9914C21.0038 15.0676 21.5002 15.219 21.9751 15.2951C22.7696 15.4145 22.8354 15.7286 22.8128 16.5081C22.6041 23.1624 23.85 25.4924 26.6868 25.4924C28.2646 25.4924 29.6769 23.9645 30.6472 22.8803C31.376 24.3547 32.5231 25.4482 34.0793 25.4924C37.831 25.5789 39.2771 19.705 39.1445 20.4751C39.0449 21.0816 40.3584 25.4482 44.2314 25.4699C49.0203 25.4924 49.9135 20.3228 50.0132 19.4558C50.0245 19.2828 50.0348 19.3045 50.0132 19.4558V19.5104C51.5364 19.2283 52.3197 18.4375 52.3197 18.4375C52.3197 18.4375 53.5439 25.5573 58.0582 25.4811C62.7474 25.3946 63.6406 20.7243 63.7516 19.8132C63.7619 19.5969 63.7732 19.6185 63.7516 19.8132V19.8348C65.5616 19.185 66.0355 18.5457 66.0355 18.5457C66.0355 18.5457 67.0068 25.5253 71.7731 25.5893C76.0222 25.6438 77.5991 21.3637 77.6113 19.5753C78.3278 19.5856 79.6526 19.1521 79.6188 19.1315C79.6188 19.1315 81.1749 25.2329 85.5228 25.546C87.5641 25.6984 89.0977 24.4196 89.9694 23.8347C92.022 25.4699 98.8522 27.5516 103.166 20.366C103.785 19.3477 102.471 18.1235 102.24 17.9711ZM5.90853 23.184C3.823 23.184 2.4878 21.2875 2.4878 19.2499C2.4878 17.2123 3.71204 15.3158 5.79852 15.3158C6.73598 15.3158 7.25501 15.4136 7.99407 16.0417C8.12571 16.5513 8.50182 17.7333 8.68893 18.2739C8.93153 18.9895 9.22959 19.6072 9.51638 20.2692C9.08667 21.9805 7.71857 23.184 5.90853 23.184ZM10.9842 16.0962C10.8958 15.9552 10.9183 16.0417 10.8196 15.9119C10.4435 14.8936 9.70443 12.6172 9.61605 10.0277C9.51638 7.10154 10.0138 3.6667 11.4806 3.6667C12.4745 3.6667 13.5332 10.6238 10.9842 16.0962ZM40.3471 13.0507C40.1158 11.3177 40.1046 3.56891 41.9908 3.78518C43.0392 4.19702 41.3297 11.502 40.3471 13.0507ZM54.173 13.0507C53.9417 11.3177 53.9304 3.56891 55.8185 3.78518C56.8659 4.19702 55.1556 11.502 54.173 13.0507ZM67.8898 13.1597C67.6575 11.4259 67.6472 3.67704 69.5334 3.89425C70.5808 4.29481 68.8714 11.6102 67.8898 13.1597ZM83.0282 3.31974C84.7612 3.14579 84.6841 10.5693 81.2191 15.2509C80.7659 13.5603 80.0823 3.90459 83.0282 3.31974ZM90.3116 19.3045C89.7597 16.541 91.1945 14.731 92.6727 14.5363C93.1917 14.4602 93.942 14.7845 94.085 15.4032C94.3276 16.5626 94.052 18.2852 90.731 20.4638C90.7413 20.4751 90.4329 19.9109 90.3116 19.3045ZM31.6185 10.7865C32.7995 10.7865 33.7596 9.84339 33.7596 8.68402C33.7596 7.52466 32.7995 6.5825 31.6185 6.5825C30.4385 6.5825 29.4775 7.52466 29.4775 8.68402C29.4775 9.84339 30.4385 10.7865 31.6185 10.7865Z" fill="white"/>
</g>
</g>
<defs>
<clipPath id="clip0_2043_1182">
<rect width="103.431" height="25.3875" fill="white" transform="translate(0.0712891 0.814087)"/>
</clipPath>
<clipPath id="clip1_2043_1182">
<rect width="103.431" height="25.3875" fill="white" transform="translate(0.0712891 0.814087)"/>
</clipPath>
</defs>
</svg>
