<svg width="25" height="25" viewBox="0 0 25 25" fill="none" xmlns="http://www.w3.org/2000/svg">
<path d="M21.4952 13.2959L14.7452 20.0459C14.5338 20.2572 14.2472 20.3759 13.9483 20.3759C13.6494 20.3759 13.3628 20.2572 13.1514 20.0459C12.9401 19.8345 12.8213 19.5479 12.8213 19.249C12.8213 18.9501 12.9401 18.6635 13.1514 18.4521L17.9805 13.6249H4.19922C3.90085 13.6249 3.6147 13.5064 3.40372 13.2954C3.19275 13.0844 3.07422 12.7983 3.07422 12.4999C3.07422 12.2016 3.19275 11.9154 3.40372 11.7044C3.6147 11.4934 3.90085 11.3749 4.19922 11.3749H17.9805L13.1533 6.54492C12.9419 6.33358 12.8232 6.04693 12.8232 5.74804C12.8232 5.44916 12.9419 5.16251 13.1533 4.95117C13.3646 4.73983 13.6513 4.62109 13.9502 4.62109C14.249 4.62109 14.5357 4.73983 14.747 4.95117L21.497 11.7012C21.6019 11.8058 21.6851 11.9302 21.7418 12.0671C21.7985 12.204 21.8276 12.3507 21.8275 12.4989C21.8273 12.6471 21.7978 12.7938 21.7408 12.9305C21.6838 13.0673 21.6003 13.1914 21.4952 13.2959Z" fill="white"/>
</svg>
