<svg width="30" height="31" viewBox="0 0 30 31" fill="none" xmlns="http://www.w3.org/2000/svg">
<g clip-path="url(#clip0_2102_953)">
<path d="M15 3.2124C12.5895 3.2124 10.2332 3.92719 8.22899 5.26637C6.22477 6.60555 4.66267 8.50897 3.74022 10.7359C2.81778 12.9629 2.57643 15.4134 3.04668 17.7776C3.51694 20.1417 4.67769 22.3133 6.38214 24.0178C8.08659 25.7222 10.2582 26.883 12.6223 27.3532C14.9865 27.8235 17.437 27.5821 19.664 26.6597C21.8909 25.7372 23.7944 24.1751 25.1335 22.1709C26.4727 20.1667 27.1875 17.8104 27.1875 15.3999C27.1841 12.1686 25.899 9.07067 23.6141 6.78581C21.3292 4.50095 18.2313 3.21581 15 3.2124ZM20.3508 16.0632L16.6008 19.8132C16.4249 19.9891 16.1863 20.0879 15.9375 20.0879C15.6887 20.0879 15.4501 19.9891 15.2742 19.8132C15.0983 19.6373 14.9995 19.3987 14.9995 19.1499C14.9995 18.9011 15.0983 18.6625 15.2742 18.4866L17.4246 16.3374H10.3125C10.0639 16.3374 9.82541 16.2386 9.64959 16.0628C9.47378 15.887 9.37501 15.6485 9.37501 15.3999C9.37501 15.1513 9.47378 14.9128 9.64959 14.737C9.82541 14.5612 10.0639 14.4624 10.3125 14.4624H17.4246L15.2742 12.3132C15.0983 12.1373 14.9995 11.8987 14.9995 11.6499C14.9995 11.4011 15.0983 11.1625 15.2742 10.9866C15.4501 10.8107 15.6887 10.7119 15.9375 10.7119C16.1863 10.7119 16.4249 10.8107 16.6008 10.9866L20.3508 14.7366C20.438 14.8237 20.5071 14.9271 20.5543 15.0409C20.6015 15.1547 20.6257 15.2767 20.6257 15.3999C20.6257 15.5231 20.6015 15.6451 20.5543 15.7589C20.5071 15.8727 20.438 15.9761 20.3508 16.0632Z" fill="white" fill-opacity="0.7"/>
</g>
<defs>
<clipPath id="clip0_2102_953">
<rect width="30" height="30" fill="white" transform="translate(0 0.399902)"/>
</clipPath>
</defs>
</svg>
