<svg width="146" height="142" viewBox="0 0 146 142" fill="none" xmlns="http://www.w3.org/2000/svg">
<g clip-path="url(#clip0_2102_1937)">
<path d="M75.1971 125.904C104.258 125.904 127.816 122.405 127.816 118.089C127.816 113.773 104.258 110.274 75.1971 110.274C46.1371 110.274 22.5781 113.773 22.5781 118.089C22.5781 122.405 46.1351 125.904 75.1971 125.904Z" fill="black"/>
<path d="M127.347 93.105C127.401 104.727 119.949 114.206 110.042 116.024C110.042 116.024 110.04 116.033 110.033 116.021C108.241 116.129 105.951 116.216 105.23 116.203L63.3639 115.062C62.5714 115.036 61.7809 114.967 60.9959 114.855C50.6439 112.874 42.6529 102.761 42.5859 90.793L42.3499 44.289C42.2859 31.134 51.8329 20.728 63.6809 21.049L105.548 22.19C117.403 22.523 127.048 33.446 127.121 46.603L127.365 93.11L127.347 93.105ZM112.243 50.126C112.453 49.561 112.56 48.968 112.551 48.361C112.551 47.7481 112.44 47.1402 112.223 46.567C112.015 46.003 111.705 45.482 111.309 45.03C110.926 44.5968 110.461 44.2431 109.942 43.989C109.445 43.7388 108.9 43.6015 108.344 43.587C93.7299 43.188 88.4059 54.608 84.1069 63.791L81.2799 69.656C76.7129 79.396 73.3149 85.291 64.4439 85.047C63.8935 85.0312 63.3462 85.1338 62.8389 85.348C62.3249 85.565 61.8769 85.901 61.4769 86.322C61.0788 86.7507 60.774 87.2574 60.5819 87.81C60.3705 88.3741 60.2661 88.9726 60.2739 89.575C60.2715 90.1881 60.3827 90.7964 60.6019 91.369C60.8159 91.933 61.1279 92.464 61.5169 92.906C61.9169 93.342 62.3779 93.704 62.8809 93.956C63.3949 94.203 63.9309 94.334 64.4809 94.349C79.0959 94.748 84.4219 83.319 88.7179 74.145L91.5229 68.285C96.0789 58.55 99.4889 52.649 108.36 52.893C108.907 52.9059 109.451 52.8026 109.955 52.59C110.463 52.36 110.927 52.039 111.318 51.616C111.709 51.193 112.011 50.695 112.221 50.13L112.243 50.126Z" fill="#00D5AD"/>
<path d="M112.121 115.857L92.1214 120.478C91.5964 120.551 91.0594 120.601 90.5154 120.638C89.9834 120.669 89.4374 120.676 88.8784 120.658L40.4624 119.114C28.6164 118.784 19.6004 105.603 19.5244 92.4541L19.2894 45.9511C19.2324 34.0161 27.0834 24.3381 37.3904 22.8841L59.6224 21.0891C49.3184 22.5331 41.4664 32.2101 41.5234 44.1461L41.7684 90.6531C41.8314 102.922 50.2254 113.249 60.9664 114.847C62.0097 115.051 63.0686 115.165 64.1314 115.189L105.998 116.33C107.367 116.365 108.705 116.26 110.013 116.016L110.022 116.019C110.952 115.97 111.744 115.912 112.103 115.852L112.121 115.857Z" fill="black"/>
<path d="M105.23 116.203C105.949 116.225 108.241 116.128 110.033 116.021C108.71 116.27 107.364 116.375 106.018 116.335L64.1513 115.194C63.0888 115.166 62.0303 115.051 60.9863 114.852C61.7593 114.97 62.5563 115.034 63.3543 115.059L105.221 116.2L105.23 116.203Z" fill="#00D5AD"/>
<path d="M112.552 48.3499C112.56 48.9526 112.456 49.5515 112.244 50.1159C112.042 50.6653 111.735 51.17 111.34 51.6019C110.959 52.0179 110.495 52.3496 109.978 52.5759C109.474 52.7884 108.93 52.8917 108.382 52.8789C99.5122 52.6349 96.1112 58.5389 91.5462 68.2709L88.7412 74.1309C84.4442 83.3049 79.1182 94.7339 64.5032 94.3349C63.9487 94.3137 63.4044 94.18 62.9032 93.9419C62.3848 93.6836 61.9215 93.327 61.5392 92.8919C61.1428 92.44 60.833 91.919 60.6252 91.3549C60.406 90.7823 60.2948 90.174 60.2972 89.5609C60.2902 88.9449 60.3972 88.3509 60.6052 87.7959C60.8034 87.2461 61.1071 86.7403 61.4992 86.3069C61.8786 85.8891 62.343 85.5574 62.8612 85.3339C63.3682 85.1176 63.9163 85.0149 64.4672 85.0329C73.3372 85.2769 76.7362 79.3829 81.3032 69.6409L84.1292 63.7769C88.4252 54.6029 93.7492 43.1839 108.367 43.5729C108.923 43.5875 109.468 43.7247 109.964 43.9749C110.485 44.2256 110.95 44.5794 111.331 45.0149C111.719 45.4579 112.035 45.9799 112.245 46.5529C112.462 47.1262 112.573 47.734 112.573 48.3469L112.552 48.3509V48.3499Z" fill="#F6F6F6"/>
<path d="M60.9898 114.843C50.2478 113.244 41.8448 102.915 41.7898 90.648L41.5458 44.142C41.4898 32.207 49.3498 22.532 59.6448 21.085L37.4128 22.88C27.1068 24.334 19.2578 34.002 19.3128 45.947L19.5468 92.451C19.6108 105.606 28.6368 118.789 40.4848 119.11L88.9018 120.654C89.4518 120.669 89.9968 120.662 90.5378 120.634C91.0755 120.609 91.6116 120.555 92.1438 120.474L112.145 115.853C111.788 115.903 110.994 115.971 110.064 116.02" stroke="black" stroke-width="1.162" stroke-miterlimit="10"/>
<path d="M110.034 116.021C108.711 116.27 107.365 116.375 106.019 116.335L64.1531 115.194C63.0906 115.166 62.0321 115.051 60.9881 114.852C50.6361 112.871 42.6441 102.758 42.5771 90.7901L42.3421 44.286C42.2781 31.131 51.8251 20.725 63.6731 21.046L105.54 22.1871C117.394 22.5201 127.039 33.443 127.113 46.6L127.357 93.1071C127.412 104.729 119.959 114.208 110.053 116.026" stroke="black" stroke-width="2.141" stroke-miterlimit="10"/>
<path d="M110.045 116.015C110.045 116.015 110.043 116.023 110.037 116.012" stroke="black" stroke-width="1.162" stroke-miterlimit="10"/>
<path d="M111.31 45.0199C111.699 45.4619 112.014 45.9839 112.225 46.5569C112.442 47.1302 112.553 47.738 112.553 48.3509C112.561 48.9536 112.457 49.5525 112.245 50.1169C112.043 50.6661 111.736 51.1708 111.341 51.6029C110.96 52.0186 110.495 52.35 109.978 52.5759C109.474 52.7889 108.93 52.8925 108.383 52.8799C99.5133 52.6359 96.1112 58.5399 91.5472 68.2709L88.7412 74.1309C84.4452 83.3049 79.1192 94.7339 64.5042 94.3349C63.9499 94.314 63.4055 94.1807 62.9043 93.9429C62.3859 93.6846 61.9226 93.328 61.5403 92.8929C61.1439 92.441 60.834 91.92 60.6263 91.3559C60.4067 90.7834 60.2951 90.1751 60.2973 89.5619C60.2898 88.9593 60.3942 88.3605 60.6053 87.7959C60.8039 87.2464 61.1079 86.741 61.5003 86.3079C61.8795 85.8898 62.3439 85.5576 62.8623 85.3339C63.369 85.1181 63.9168 85.0157 64.4672 85.0339C73.3372 85.2769 76.7373 79.3839 81.3043 69.6419L84.1302 63.7769C88.4262 54.6039 93.7502 43.1839 108.367 43.5739C108.923 43.5881 109.469 43.7251 109.965 43.9749C110.479 44.2209 110.943 44.5749 111.332 45.0159L111.31 45.0199Z" stroke="#F6F6F6" stroke-width="0.533" stroke-miterlimit="10"/>
</g>
<defs>
<clipPath id="clip0_2102_1937">
<rect width="145" height="141" fill="white" transform="translate(0.5 0.5)"/>
</clipPath>
</defs>
</svg>
