<svg width="133" height="17" viewBox="0 0 133 17" fill="none" xmlns="http://www.w3.org/2000/svg">
<g clip-path="url(#clip0_2043_1190)">
<g clip-path="url(#clip1_2043_1190)">
<path d="M10.7521 8.68409H2.4316V15.6881H0.287109V0.838883H2.43254V6.65842H10.7521V0.838883H12.8975V15.7098H10.7521V8.68409ZM26.1568 0.622925C30.4033 0.622925 33.6323 3.92076 33.6323 8.27386C33.6323 12.6062 30.3816 15.9248 26.1568 15.9248C21.9319 15.9248 18.6822 12.6279 18.6822 8.27386C18.7039 3.92076 21.9536 0.622925 26.1568 0.622925ZM26.1568 13.8774C29.2122 13.8774 31.5086 11.4642 31.5086 8.23143C31.5086 4.99866 29.2339 2.58446 26.1568 2.58446C23.0805 2.58446 20.805 4.99866 20.805 8.23143C20.8484 11.5066 23.1239 13.8774 26.1568 13.8774ZM40.5656 15.7098V0.838883H45.0498C47.4121 0.838883 48.9502 1.35567 50.1639 2.23931C52.0057 3.59729 53.1534 5.79554 53.1534 8.29555C53.1534 10.7531 52.0047 12.9938 50.1639 14.3518C48.9502 15.2354 47.3904 15.7532 45.0064 15.7532H40.5656V15.7098ZM49.2105 4.09334C48.2571 3.29552 47.0434 2.84286 44.9423 2.84286H42.6884V13.6841H44.9423C47.0434 13.6841 48.2571 13.2531 49.2105 12.4336C50.3582 11.4425 51.0089 9.93363 51.0089 8.25312C51.0306 6.59335 50.3582 5.08448 49.2105 4.09334ZM60.0433 0.838883H62.1887V15.7098H60.0433V0.838883ZM72.1982 4.7827V15.7098H70.0537V0.838883H71.5701L80.5621 11.766V0.838883H82.7066V15.7098H81.1901L72.1982 4.7827ZM90.5499 0.838883H92.6953V7.11014L98.8478 0.838883H101.686L94.9483 7.73538L102.141 15.6881H99.4117L92.7378 8.25312V15.6881H90.5716V0.838883H90.5499ZM115.424 6.65842V8.68409H110.526V13.6624H117.156V15.6881H108.381V0.838883H116.94V2.86455H110.526V6.67917H115.424V6.65842ZM131.154 6.65842V8.68409H126.256V13.6624H132.886V15.6881H124.111V0.838883H132.67V2.86455H126.256V6.67917H131.154V6.65842Z" fill="white"/>
</g>
</g>
<defs>
<clipPath id="clip0_2043_1190">
<rect width="132.579" height="15.9847" fill="white" transform="translate(0.287109 0.515381)"/>
</clipPath>
<clipPath id="clip1_2043_1190">
<rect width="132.579" height="15.615" fill="white" transform="translate(0.287109 0.515381)"/>
</clipPath>
</defs>
</svg>
