<svg width="12" height="18" viewBox="0 0 12 18" fill="none" xmlns="http://www.w3.org/2000/svg">
<g clip-path="url(#clip0_2043_1197)">
<path d="M11.488 11.488C11.677 11.677 11.543 12 11.276 12H6.3C6.134 12 6 12.134 6 12.3V17.276C6 17.543 5.677 17.677 5.488 17.488L0.117 12.117C0.042 12.042 0 11.94 0 11.834V6.3C0 6.134 0.134 6 0.3 6H6L11.488 11.488Z" fill="#191919"/>
<path d="M6.00028 6L0.512277 0.512C0.323277 0.323 0.457277 0 0.724277 0H11.7003C11.8663 0 12.0003 0.134 12.0003 0.3V5.7C12.0003 5.866 11.8663 6 11.7003 6H6.00028Z" fill="#191919"/>
</g>
<defs>
<clipPath id="clip0_2043_1197">
<rect width="12" height="18" fill="white"/>
</clipPath>
</defs>
</svg>
