<svg width="30" height="30" viewBox="0 0 30 30" fill="none" xmlns="http://www.w3.org/2000/svg">
<path d="M19.6629 20.237C20.2539 21.237 19.5329 22.5 18.3709 22.5H4.12891C2.96691 22.5 2.24591 21.237 2.83691 20.237L9.95891 8.18499C10.5389 7.20299 11.9609 7.20299 12.5409 8.18499L19.6629 20.237ZM6.74991 19.5H15.7499L11.2499 12L6.74991 19.5ZM20.9999 8.99999C20.9999 8.17199 21.6719 7.49999 22.4999 7.49999C23.3279 7.49999 23.9999 8.17199 23.9999 8.99999V21C23.9999 21.828 23.3279 22.5 22.4999 22.5C21.6719 22.5 20.9999 21.828 20.9999 21V8.99999Z" fill="url(#paint0_linear_2043_1105)"/>
<defs>
<linearGradient id="paint0_linear_2043_1105" x1="-1.62615" y1="-6.44851" x2="-23.0001" y2="-6.44851" gradientUnits="userSpaceOnUse">
<stop stop-color="#BC2EFF"/>
<stop offset="1" stop-color="#359CFF"/>
</linearGradient>
</defs>
</svg>
