<svg width="141" height="29" viewBox="0 0 141 29" fill="none" xmlns="http://www.w3.org/2000/svg">
<g clip-path="url(#clip0_2043_1178)">
<g clip-path="url(#clip1_2043_1178)">
<path d="M109.814 10.3947H106.518V21.9218H109.814V10.3947ZM109.814 6.59594H106.518V9.14476H109.814V6.59594ZM37.9315 6.59594H34.4864V21.9218H45.0062V18.9836H37.9315V6.59594ZM51.8146 9.43633C48.1475 9.43633 45.2451 12.2513 45.2451 15.7999C45.2451 19.3485 48.1475 22.172 51.8146 22.172C55.4817 22.172 58.4087 19.356 58.4087 15.8056C58.4087 12.2551 55.5043 9.43633 51.8146 9.43633ZM51.8146 19.1294C49.9693 19.1294 48.5914 17.7346 48.5914 15.7905C48.5914 13.8464 49.9693 12.4629 51.8146 12.4629C53.6609 12.4629 55.0378 13.8822 55.0378 15.7905C55.0378 17.6998 53.6609 19.1294 51.8146 19.1294ZM72.2325 19.326C71.6409 19.326 71.1246 18.9836 71.1246 17.9312V13.0367H74.2678V10.3947H71.1246V7.07278H67.829V10.3947H63.5007V7.07278H60.2041V10.3947H58.4087V13.0367H60.2041V17.9801C60.2041 20.7461 61.5331 22.1663 63.9916 22.1663C65.1024 22.1692 66.1887 21.8466 67.117 21.239L66.1849 18.8162C65.7184 19.1303 65.172 19.3081 64.6095 19.3297C64.0179 19.3297 63.5016 18.9874 63.5016 17.9349V13.0367H67.8308V17.9801C67.8308 20.7461 69.1579 22.1663 71.6183 22.1663C72.7291 22.1682 73.8154 21.8456 74.7437 21.239L73.8116 18.8162C73.3433 19.1303 72.7959 19.3071 72.2325 19.326ZM93.0708 14.9384C92.5676 11.497 89.5532 9.06294 86.2397 9.54354C84.5581 9.77209 83.0391 10.6656 82.0253 12.0218C81.0123 13.3781 80.591 15.0842 80.8562 16.7536C81.4393 20.7508 84.8948 22.6018 88.4481 22.0864C90.0573 21.8616 91.5641 21.1713 92.782 20.1L91.2236 17.95C90.3339 18.7156 89.241 19.2084 88.0766 19.3711C86.4692 19.6025 84.9653 19.0005 84.3314 17.3904L93.1686 16.1103C93.1573 15.7181 93.1253 15.3268 93.0708 14.9384ZM83.9665 15.2403C84.0587 13.6687 85.129 12.4742 86.5407 12.272C88.0239 12.0425 89.4469 12.9454 89.8645 14.3816L83.9665 15.2403ZM128.852 14.9384C128.349 11.497 125.333 9.06294 122.022 9.54354C120.339 9.77209 118.82 10.6647 117.807 12.0218C116.794 13.3781 116.372 15.0842 116.638 16.7536C117.222 20.7508 120.673 22.6018 124.229 22.0864C125.838 21.8616 127.344 21.1713 128.562 20.1L127.005 17.95C126.114 18.7156 125.021 19.2084 123.856 19.3711C122.249 19.6025 120.745 19.0005 120.11 17.3904L128.949 16.1103C128.938 15.7181 128.906 15.3268 128.852 14.9384ZM119.747 15.2403C119.841 13.6687 120.908 12.4742 122.322 12.272C123.803 12.0416 125.225 12.9464 125.638 14.3816L119.747 15.2403ZM115.227 6.59594H111.931V21.9199H115.227V6.59594ZM135.678 14.2593C134.546 14.0139 133.513 13.7938 133.513 13.1091C133.513 12.5956 134.227 12.2513 134.989 12.2513C136.181 12.2701 137.351 12.5636 138.409 13.1091L139.516 10.6599C138.141 9.82288 136.551 9.39776 134.939 9.43633C132.627 9.43633 130.166 10.7587 130.166 13.2549C130.166 15.6052 132.159 16.4084 134.596 17.0489C135.653 17.3433 136.713 17.5136 136.713 18.2491C136.713 18.9836 135.457 19.277 134.693 19.277C133.301 19.3034 131.944 18.8444 130.856 17.9782L129.675 20.5026C130.365 21.1383 132.06 22.172 134.693 22.172C136.983 22.172 140.057 21.1684 140.057 18.1559C140.057 15.6541 137.777 14.7522 135.678 14.2593ZM79.3654 10.3947H76.0689V21.9218H79.3654V10.3947ZM79.3654 6.59594H76.0689V9.14476H79.3654V6.59594ZM94.475 21.9218H97.9126V15.6588H103.742V12.7526H97.9126V9.52944H104.995V6.59594H94.475V21.9218ZM28.0466 7.70952V21.0537C28.0466 24.829 24.9711 27.8885 21.177 27.8885H7.76511C3.97103 27.8885 0.895508 24.829 0.895508 21.0537V7.70952C0.895508 3.93331 3.97103 0.873779 7.76511 0.873779H21.177C24.9711 0.873779 28.0466 3.93331 28.0466 7.70952ZM21.5316 6.92512C16.8572 6.92512 15.1257 10.2452 13.7327 12.9125L12.8233 14.6186C11.3485 17.4477 10.2472 19.167 7.40771 19.167C6.66657 19.167 6.06558 19.7652 6.06558 20.5026C6.06652 21.2399 6.66657 21.8372 7.40771 21.8381C12.0831 21.8381 13.8155 18.518 15.2075 15.8507L16.1151 14.1437C17.5917 11.3155 18.694 9.59621 21.5316 9.59621C22.2727 9.59621 22.8737 8.99804 22.8756 8.25973C22.8737 7.52141 22.2727 6.92418 21.5316 6.92512Z" fill="white"/>
</g>
</g>
<defs>
<clipPath id="clip0_2043_1178">
<rect width="139.161" height="27.2681" fill="white" transform="translate(0.895508 0.873779)"/>
</clipPath>
<clipPath id="clip1_2043_1178">
<rect width="139.161" height="27.2527" fill="white" transform="translate(0.895508 0.873779)"/>
</clipPath>
</defs>
</svg>
