<svg width="146" height="29" viewBox="0 0 146 29" fill="none" xmlns="http://www.w3.org/2000/svg">
<g clip-path="url(#clip0_2043_1162)">
<g clip-path="url(#clip1_2043_1162)">
<path d="M50.2824 20.3071V11.2177H50.2429L47.4518 20.3071H44.5628L41.7707 11.2177H41.7322V20.3071H38.8027V8.47455H43.6782L45.9969 16.5458H46.0365L48.3373 8.45573H53.2119V20.2874H50.2824V20.3071ZM63.807 15.6641C63.807 15.9586 63.7872 16.5063 63.7872 16.5063H57.4973C57.5557 17.4276 58.3029 18.0543 59.5017 18.0543C60.7213 18.0543 61.5457 17.5847 62.1169 17.133H62.2533L63.1577 19.4649C62.5883 19.9147 61.2907 20.5029 59.5601 20.5029C56.769 20.5029 54.7646 18.7206 54.7646 15.6255C54.7646 12.569 56.769 10.6295 59.3841 10.6295C62.0378 10.6295 63.807 12.6669 63.807 15.6641ZM57.5952 14.4897H61.2314C61.1533 13.7444 60.4842 13.0198 59.4236 13.0198C58.3424 13.0198 57.7128 13.7255 57.5952 14.4897ZM72.7111 12.0985L71.7089 14.3127H71.5705C70.765 13.431 69.6442 12.9802 68.7794 12.9802C68.0529 12.9802 67.7772 13.2936 67.7772 13.6079C67.7772 14.0191 67.9344 14.0775 69.9595 14.5678C71.8463 15.0176 73.0847 15.7431 73.0847 17.565C73.0847 19.4649 71.7484 20.5029 69.4287 20.5029C67.1288 20.5029 65.4773 19.6409 64.829 18.9558L65.8904 16.5853H66.0278C66.8531 17.2704 67.8751 17.9367 69.3299 17.9367C70.1957 17.9367 70.3528 17.7024 70.3528 17.388C70.3528 17.0756 70.175 16.8987 68.1311 16.3896C65.93 15.841 65.084 14.9592 65.084 13.5289C65.084 11.7465 66.52 10.6107 68.6627 10.6107C70.7057 10.6295 72.2791 11.5894 72.7111 12.0985ZM81.8118 12.0985L80.8096 14.3127H80.6732C79.8667 13.431 78.7459 12.9802 77.8811 12.9802C77.1537 12.9802 76.878 13.2936 76.878 13.6079C76.878 14.0191 77.0361 14.0775 79.0612 14.5678C80.948 15.0176 82.1854 15.7431 82.1854 17.565C82.1854 19.4649 80.8492 20.5029 78.5304 20.5029C76.2296 20.5029 74.579 19.6409 73.9297 18.9558L74.9921 16.5853H75.1295C75.9548 17.2704 76.9768 17.9367 78.4316 17.9367C79.2965 17.9367 79.4536 17.7024 79.4536 17.388C79.4536 17.0756 79.2776 16.8987 77.2328 16.3896C75.0307 15.841 74.1857 14.9592 74.1857 13.5289C74.1857 11.7465 75.6208 10.6107 77.7635 10.6107C79.8272 10.6295 81.3997 11.5894 81.8118 12.0985ZM90.9728 14.2732V20.3071H88.752L88.5158 19.0537H88.4565C88.0048 19.8573 87.0609 20.5029 85.7237 20.5029C83.8962 20.5029 82.9524 19.3275 82.9524 17.7805C82.9524 16.2325 83.66 15.2528 85.8818 14.8218C88.1027 14.3908 88.2598 14.2346 88.2598 13.7641C88.2598 13.3143 87.8279 13.0593 86.9433 13.0593C85.9806 13.0593 84.8994 13.7444 84.3094 14.6261H84.171L83.0512 12.3347C84.0929 11.3155 85.4292 10.6295 87.1193 10.6295C89.262 10.6295 90.9728 12.0204 90.9728 14.2732ZM88.2598 16.1148C88.1027 16.3698 87.8081 16.5458 86.805 16.7811C85.8423 17.0163 85.7049 17.2902 85.7049 17.6628C85.7049 18.0345 86.0192 18.2115 86.5104 18.2115C87.2971 18.2115 88.2994 17.7024 88.2994 16.9382V16.1148H88.2598ZM98.8945 12.0797H98.9538L99.1109 10.8253H101.313V19.0932C101.313 22.0123 99.6614 23.6187 96.6539 23.6187C94.9431 23.6187 93.6266 23.0493 92.8201 22.4621L93.6651 20.0521H93.8035C94.6099 20.6996 95.4748 21.091 96.5551 21.091C97.9911 21.091 98.5011 20.5226 98.5011 19.2494V18.3874H98.4418C98.0297 18.9944 97.2241 19.5044 96.0055 19.5044C93.7442 19.5044 92.1717 17.7409 92.1717 15.2331C92.1717 12.4909 94.0387 10.6107 96.2408 10.6107C97.577 10.6295 98.5011 11.4134 98.8945 12.0797ZM95.0616 15.155C95.0616 16.3115 95.7891 17.0361 96.8891 17.0361C97.9506 17.0361 98.678 16.3698 98.678 15.1352C98.678 13.9599 98.0494 13.1176 96.8891 13.1176C95.6912 13.1176 95.0616 13.9984 95.0616 15.155ZM111.73 15.6641C111.73 15.9586 111.711 16.5063 111.711 16.5063H105.421C105.48 17.4276 106.227 18.0543 107.426 18.0543C108.645 18.0543 109.471 17.5847 110.04 17.133H110.178L111.062 19.4847C110.493 19.9354 109.195 20.5226 107.465 20.5226C104.673 20.5226 102.668 18.7403 102.668 15.6443C102.668 12.5888 104.673 10.6493 107.288 10.6493C109.961 10.6295 111.73 12.6669 111.73 15.6641ZM105.518 14.4897H109.156C109.077 13.7444 108.408 13.0198 107.347 13.0198C106.285 13.0198 105.637 13.7255 105.518 14.4897ZM119.613 8.47455C121.953 8.47455 123.21 9.61038 123.21 11.5113C123.21 12.8626 122.581 13.7048 121.343 14.2346V14.2732C122.463 14.7052 123.21 15.6255 123.21 17.1537C123.21 18.682 122.345 20.3071 119.18 20.3071H113.244V8.47455H119.613ZM116.252 13.2936H119.082C119.79 13.2936 120.184 12.8824 120.184 12.2754C120.184 11.6872 119.869 11.2177 118.984 11.2177H116.252V13.2936ZM116.252 17.565H119.082C119.79 17.565 120.184 17.1537 120.184 16.527C120.184 15.8993 119.869 15.4297 118.984 15.4297H116.252V17.565ZM127.849 7.94663C127.849 8.96483 127.221 9.70919 126.08 9.70919C124.94 9.70919 124.311 8.96483 124.311 7.94663C124.311 6.90772 124.94 6.22171 126.08 6.22171C127.221 6.22171 127.849 6.90772 127.849 7.94663ZM124.665 20.3071V10.8253H127.456V20.2874H124.665V20.3071ZM135.712 11.4134L135.299 13.9599H135.162C134.832 13.5938 134.358 13.3868 133.864 13.3924C132.745 13.3924 132.095 14.4106 132.095 16.1148V20.3071H129.304V10.8253H131.604L131.761 12.0797H131.82C132.331 11.0605 133.118 10.6295 133.982 10.6295C134.651 10.6295 135.359 10.8845 135.712 11.4134ZM143.241 20.3071L143.005 19.0537H142.945C142.396 19.9147 141.57 20.5029 140.056 20.5029C137.501 20.5029 135.889 18.4665 135.889 15.7036C135.889 12.8626 137.58 10.6295 140.135 10.6295C141.255 10.6295 142.179 11.0605 142.71 11.8049H142.75V7.74995H145.462V20.3071H143.241ZM138.681 15.586C138.681 17.0163 139.506 17.9179 140.744 17.9179C141.983 17.9179 142.828 17.1142 142.828 15.5662C142.828 14.1358 142.002 13.1176 140.784 13.1176C139.564 13.1176 138.681 14.1565 138.681 15.586ZM29.014 5.7126C27.7578 5.71637 26.5796 6.32146 25.8493 7.33872L21.0726 13.9984C20.8327 14.3429 20.396 14.4915 19.9951 14.3664C19.5943 14.2403 19.3214 13.8695 19.3232 13.4507C19.3232 13.255 19.3825 13.0593 19.4804 12.9219L23.5099 6.90772C23.9381 6.2697 24.1639 5.51969 24.1583 4.75275C24.1602 3.72984 23.7536 2.7474 23.0272 2.0228C22.2997 1.29914 21.3135 0.892615 20.2859 0.893556H0V4.75275H17.3772C17.3744 5.82271 16.5048 6.6894 15.4302 6.69222H0C0 8.06331 0.294544 9.37606 0.805527 10.5514H13.4851C13.4832 11.6214 12.6127 12.4881 11.539 12.4909H1.94606C3.7745 14.9282 6.65501 16.3595 9.71056 16.3501H14.4873C15.0048 16.3708 15.4132 16.7943 15.4132 17.3099C15.4132 17.8256 15.0048 18.2491 14.4873 18.2698H9.6908L3.20423 27.9277H14.939C20.3057 27.9277 24.866 24.4402 26.4591 19.6211L28.6404 13.0198C29.3472 10.9015 30.626 9.01658 32.3359 7.57303C31.6358 6.41368 30.3738 5.70602 29.014 5.7126ZM29.014 8.35692C28.615 8.35033 28.2923 8.02944 28.2866 7.63232C28.2923 7.2352 28.615 6.91431 29.014 6.90772C29.4074 6.90772 29.7405 7.23991 29.7405 7.63232C29.7424 7.82429 29.6662 8.00968 29.5288 8.14518C29.3923 8.28163 29.207 8.35786 29.014 8.35692Z" fill="white"/>
</g>
</g>
<defs>
<clipPath id="clip0_2043_1162">
<rect width="145.743" height="27.2681" fill="white" transform="translate(0 0.873779)"/>
</clipPath>
<clipPath id="clip1_2043_1162">
<rect width="145.743" height="27.2675" fill="white" transform="translate(0 0.873779)"/>
</clipPath>
</defs>
</svg>
