<svg width="131" height="25" viewBox="0 0 131 25" fill="none" xmlns="http://www.w3.org/2000/svg">
<g clip-path="url(#clip0_2043_1186)">
<g clip-path="url(#clip1_2043_1186)">
<path d="M47.4843 24.7752L47.0805 23.7298H45.7871L45.4094 24.7752H44.7352L46.1098 21.1495H46.7159L48.1846 24.7752H47.4843ZM46.8782 23.1862L46.5686 22.3581C46.5145 22.2089 46.4604 22.0737 46.4203 21.9515C46.3923 22.0709 46.356 22.1893 46.3121 22.304L45.9755 23.2002H46.8782V23.1862ZM53.1159 24.7752V22.332L52.2803 24.7752H51.7422L50.9067 22.291V24.7752H50.2866V21.1495H51.1221L51.9446 23.6487C51.9717 23.7429 51.9978 23.824 52.0248 23.893C52.0518 23.811 52.078 23.7159 52.119 23.6068L52.9545 21.1495H53.709V24.7752H53.1159ZM57.6293 24.8293C57.3067 24.8293 57.0372 24.7752 56.8208 24.6941C56.6007 24.6064 56.4161 24.4488 56.2958 24.2455C56.1727 24.0441 56.1037 23.8156 56.0934 23.5806V23.4986L56.6865 23.4445L56.6996 23.5256C56.7136 23.6888 56.7537 23.811 56.8208 23.9061C56.8889 24.0012 56.9831 24.0823 57.1313 24.1374C57.2796 24.2045 57.4409 24.2325 57.6163 24.2325C57.7785 24.2325 57.9268 24.2045 58.0471 24.1635C58.1487 24.1318 58.2373 24.0702 58.3035 23.9882C58.3558 23.9173 58.3847 23.8315 58.3847 23.7429C58.3847 23.659 58.3558 23.5778 58.3035 23.5126C58.2495 23.4445 58.1553 23.3904 58.034 23.3363C57.9398 23.2953 57.7515 23.2412 57.4409 23.1731C57.1183 23.092 56.8889 23.0239 56.7667 22.9558C56.6063 22.871 56.4683 22.7498 56.3629 22.6024C56.2716 22.4607 56.2249 22.2956 56.2287 22.1278C56.2287 21.9375 56.2827 21.7613 56.39 21.5981C56.4982 21.4358 56.6595 21.2997 56.8618 21.2185C57.0642 21.1365 57.2796 21.0964 57.5221 21.0964C57.7785 21.0964 58.02 21.1365 58.2224 21.2316C58.4388 21.3267 58.6001 21.4489 58.7073 21.6251C58.8155 21.8014 58.8826 21.9925 58.8966 22.2089V22.291L58.2895 22.332L58.2765 22.2499C58.2494 22.0597 58.1823 21.9105 58.0741 21.8154C57.9538 21.7202 57.7785 21.6662 57.5351 21.6662C57.2796 21.6662 57.1043 21.7063 56.9961 21.8014C56.8889 21.8834 56.8348 21.9786 56.8348 22.1007C56.8348 22.1958 56.8749 22.277 56.943 22.345C56.9961 22.3991 57.1453 22.4672 57.5892 22.5754C57.9538 22.6574 58.2224 22.7386 58.3576 22.8066C58.573 22.9018 58.7344 23.037 58.8286 23.1862C58.9367 23.3363 58.9908 23.5256 58.9908 23.7298C58.9908 23.9331 58.9367 24.1234 58.8155 24.2996C58.7073 24.4768 58.546 24.612 58.3306 24.7071C58.1068 24.792 57.869 24.833 57.6293 24.8293ZM62.2509 24.7752V21.7342H61.1198V21.1495H64.0162V21.7342H62.8841V24.7752H62.2509ZM66.2664 24.7752V21.1495H68.9204V21.7342H66.8996V22.6164H68.7852V23.2002H66.8996V24.1914H69.0015V24.7752H66.2664ZM73.8926 24.7752L73.4068 24.0152C73.3108 23.8539 73.2026 23.6991 73.0842 23.5536C73.003 23.4585 72.9359 23.3764 72.8818 23.3363C72.8296 23.2981 72.7699 23.2701 72.7065 23.2543C72.6794 23.2543 72.6123 23.2412 72.478 23.2412H72.0462V24.7752H71.4131V21.1495H73.017C73.3266 21.1495 73.5691 21.1775 73.7444 21.2447C73.9197 21.3137 74.067 21.4358 74.1612 21.6121C74.2694 21.7753 74.3104 21.9646 74.3104 22.1818C74.3104 22.4541 74.2293 22.6714 74.054 22.8607C73.9066 23.009 73.7201 23.1134 73.515 23.1591C73.542 23.1862 73.5691 23.2002 73.5961 23.2272C73.7304 23.3503 73.8656 23.5126 73.9868 23.7019L74.6732 24.7752H73.8926ZM72.9219 22.6714C73.1112 22.6714 73.2725 22.6574 73.3798 22.6164C73.4749 22.5754 73.5551 22.5213 73.5961 22.4402C73.6493 22.3646 73.6772 22.2742 73.6772 22.1818C73.6772 22.0532 73.6231 21.9301 73.528 21.8424C73.4338 21.7473 73.2595 21.7063 73.0301 21.7063H72.0323V22.6714H72.9219ZM76.8161 24.7752V21.1495H78.0825C78.352 21.1495 78.5674 21.1635 78.7157 21.2046C78.9181 21.2586 79.1064 21.3407 79.2547 21.4759C79.4431 21.6391 79.5913 21.8424 79.6865 22.1007C79.7807 22.345 79.8207 22.6304 79.8207 22.9558C79.8207 23.2272 79.7937 23.4715 79.7266 23.6758C79.6706 23.8623 79.5885 24.0404 79.4841 24.2045C79.3927 24.3369 79.2789 24.4516 79.1475 24.5439C79.0262 24.6251 78.877 24.6941 78.7157 24.7342C78.5544 24.7752 78.352 24.8023 78.1497 24.8023H76.8161V24.7752ZM78.0825 24.1914C78.2979 24.1914 78.4602 24.1775 78.5814 24.1374C78.6812 24.1019 78.7735 24.0469 78.8509 23.9742C78.9451 23.8791 79.0262 23.7429 79.0803 23.5806C79.1335 23.4035 79.1605 23.1862 79.1605 22.9419C79.1605 22.6024 79.1064 22.332 78.9992 22.1548C78.891 21.9786 78.7698 21.8564 78.6085 21.8014C78.5003 21.7613 78.3119 21.7342 78.0555 21.7342H77.4493V24.1914H78.0825ZM84.5636 24.7752L84.1589 23.7298H82.8524L82.4757 24.7752H81.8014L83.176 21.1495H83.7821L85.2509 24.7752H84.5636ZM83.9565 23.1862L83.6469 22.3581C83.5938 22.2089 83.5397 22.0737 83.4986 21.9515C83.4707 22.0718 83.4352 22.1893 83.3905 22.304L83.0548 23.2002H83.9565V23.1862ZM90.1952 24.7752V22.332L89.3465 24.7752H88.8075L87.972 22.291V24.7752H87.3659V21.1495H88.2014L89.0369 23.6487C89.064 23.7429 89.091 23.824 89.1181 23.893C89.1451 23.811 89.1852 23.7159 89.2123 23.6068L90.0469 21.1495H90.8013V24.7752H90.1952ZM15.8212 15.9376L14.4065 5.53804L9.35407 15.9376H8.81507L3.69548 5.4709L2.2799 15.9376H0.59668L2.7387 0.677692H3.18352L9.08457 12.8015L14.9455 0.677692H15.3773L17.5454 15.9376H15.8212ZM58.546 15.9376L57.1313 5.53804L52.078 15.9376H51.5259L46.4063 5.4709L45.0047 15.9376H43.3075L45.4626 0.677692H45.9083L51.8094 12.8015L57.6564 0.677692H58.1012L60.2572 15.9376H58.546ZM124.917 16.3442C124.023 16.3535 123.148 16.0878 122.41 15.5842C121.67 15.0955 120.969 14.2535 120.349 13.0999L120.282 12.9908L121.764 12.0816L121.831 12.2038C122.68 13.8059 123.678 14.6069 124.769 14.6069C125.24 14.6069 125.684 14.4978 126.102 14.2675C126.506 14.0502 126.83 13.7378 127.046 13.3713C127.257 13.0132 127.369 12.6057 127.369 12.1898C127.369 11.7151 127.206 11.2535 126.898 10.7919C126.453 10.1401 125.604 9.33904 124.405 8.41583C123.152 7.45253 122.397 6.77364 122.087 6.33909C121.549 5.61917 121.278 4.81813 121.278 3.963C121.278 3.28411 121.441 2.66025 121.764 2.11752C122.079 1.5608 122.546 1.10479 123.111 0.799853C123.691 0.4744 124.324 0.325195 124.998 0.325195C125.712 0.325195 126.386 0.501444 127.019 0.867928C127.652 1.23441 128.285 1.8732 128.986 2.8365L129.067 2.94467L127.652 4.03107L127.571 3.92197C127.032 3.189 126.56 2.71434 126.183 2.48307C125.82 2.2574 125.399 2.13897 124.971 2.14363C124.405 2.14363 123.959 2.30682 123.61 2.66025C123.259 2.99969 123.085 3.42026 123.085 3.92197C123.085 4.22131 123.152 4.53371 123.273 4.81813C123.394 5.10348 123.637 5.42987 123.973 5.76931C124.108 5.90453 124.539 6.27101 125.86 7.24923C127.139 8.21254 128.042 9.08072 128.514 9.84167C129 10.6017 129.241 11.3897 129.241 12.1637C129.241 13.2762 128.824 14.2675 127.989 15.0955C127.139 15.9236 126.115 16.3442 124.917 16.3442ZM76.5065 15.9376L74.1883 11.0092H68.0037L65.7004 15.9376H63.7607L70.861 0.677692H71.3991L78.393 15.9376H76.5065ZM73.4208 9.29801L71.1174 4.31643L68.7992 9.28495H73.4208V9.29801ZM101.863 15.9376L95.4229 0.677692H97.3225L102.119 12.0546L106.997 0.677692H108.897L102.362 15.9376H101.863ZM113.854 0.677692H115.62V15.9376H113.854V0.677692ZM29.8073 15.9376L23.8792 7.3714V15.9376H22.14V0.677692H25.2127C26.8829 0.677692 27.9888 0.745767 28.5679 0.881916C29.4389 1.06842 30.2185 1.54774 30.7771 2.23875C31.3431 2.93162 31.6257 3.78675 31.6257 4.79202C31.6257 5.63316 31.4233 6.37918 31.0466 7.01797C30.6559 7.65582 30.0898 8.14446 29.3625 8.47085C28.7022 8.76926 28.0961 8.93245 26.964 8.97255L31.9763 15.9376H29.8073ZM26.2767 7.38445C27.2335 7.38445 27.9478 7.28933 28.4057 7.0991C28.8412 6.93031 29.2067 6.61884 29.4426 6.21692C29.686 5.80941 29.8203 5.34781 29.8203 4.85916C29.8203 4.37051 29.6991 3.92197 29.4426 3.52844C29.2114 3.14424 28.8617 2.84489 28.4458 2.67424C28.0289 2.49706 27.3286 2.41593 26.3308 2.41593H23.8652V7.35741L26.2767 7.38445ZM90.2362 15.9507L84.3072 7.38445V15.9507H82.5698V0.677692H85.6416C87.3118 0.677692 88.4168 0.745767 88.9959 0.881916C89.8669 1.06842 90.6474 1.54774 91.206 2.23875C91.7721 2.93162 92.0546 3.78675 92.0546 4.79202C92.0546 5.63316 91.8532 6.37918 91.4755 7.01797C91.0848 7.65582 90.5187 8.14446 89.7914 8.47085C89.1311 8.76926 88.525 8.93245 87.3929 8.97255L92.4053 15.9376H90.2362V15.9507ZM86.7056 7.38445C87.6624 7.38445 88.3767 7.28933 88.8346 7.0991C89.2701 6.92938 89.6356 6.61884 89.8725 6.21692C90.114 5.80941 90.2492 5.34781 90.2492 4.85916C90.2492 4.37051 90.128 3.92197 89.8725 3.52844C89.6403 3.14424 89.2906 2.84489 88.8747 2.67424C88.4578 2.49706 87.7566 2.41593 86.7597 2.41593H84.2941V7.35741L86.7056 7.38445Z" fill="white"/>
</g>
</g>
<defs>
<clipPath id="clip0_2043_1186">
<rect width="129.758" height="24.4472" fill="white" transform="translate(0.515625 0.28418)"/>
</clipPath>
<clipPath id="clip1_2043_1186">
<rect width="128.951" height="24.4472" fill="white" transform="translate(0.515625 0.28418)"/>
</clipPath>
</defs>
</svg>
