<svg width="92" height="92" viewBox="0 0 92 92" fill="none" xmlns="http://www.w3.org/2000/svg">
<g opacity="0.4">
<g clip-path="url(#clip0_2184_595)">
<path d="M46 8.625C25.358 8.625 8.625 25.358 8.625 46C8.625 66.642 25.358 83.375 46 83.375C66.642 83.375 83.375 66.642 83.375 46C83.335 25.375 66.625 8.665 46 8.625ZM59.081 48.408L41.831 59.908C41.355 60.202 40.809 60.364 40.25 60.375C39.776 60.375 39.308 60.264 38.884 60.052C37.948 59.546 37.367 58.564 37.375 57.5V34.5C37.367 33.436 37.948 32.454 38.884 31.948C39.823 31.473 40.943 31.528 41.831 32.092L59.081 43.592C59.895 44.123 60.385 45.029 60.385 46C60.385 46.971 59.895 47.877 59.081 48.408Z" fill="white"/>
</g>
</g>
<defs>
<clipPath id="clip0_2184_595">
<rect width="92" height="92" fill="white"/>
</clipPath>
</defs>
</svg>
