<svg width="74" height="37" viewBox="0 0 74 37" fill="none" xmlns="http://www.w3.org/2000/svg">
<g clip-path="url(#clip0_2043_1166)">
<path d="M54.7699 30.0822V27.3188H56.3369C58.3873 27.3188 58.5067 25.3973 58.5067 25.3973L54.3325 13.7108H50.7255V25.9503H47.4589V11.207C47.4589 9.38989 48.0364 8.10979 49.1905 7.36863C50.3446 6.62653 51.9266 6.255 53.9375 6.255C54.0297 6.255 54.1698 6.25971 54.3561 6.26911C54.5413 6.27852 54.6815 6.28322 54.7746 6.28322V8.676C54.5884 8.65437 54.4021 8.64496 54.2159 8.64779C53.788 8.64779 53.4334 8.65719 53.155 8.676C52.8418 8.70046 52.5323 8.76159 52.2332 8.85659C51.8993 8.95817 51.6341 9.09267 51.4375 9.25915C51.2419 9.42657 51.0754 9.67676 50.9352 10.0107C50.796 10.3446 50.7255 10.7434 50.7255 11.207H54.7746V11.2165L56.651 11.207L60.2994 21.3133L64.6655 11.207H68.1522C68.1522 11.207 61.9059 25.2938 61.1591 26.8391C60.1142 29.0034 59.23 30.0822 56.9398 30.0822H54.7699ZM5.7207 25.9503V16.7705C5.7207 14.8235 6.21356 13.4089 7.2002 12.5276C8.18685 11.6472 9.68516 11.207 11.6951 11.207H15.7734V13.7108H12.5332C11.2484 13.7108 10.337 14.0259 9.79709 14.6561C9.2572 15.2872 8.98726 16.2785 8.98726 17.6329V25.9503H5.7207ZM17.8652 25.9503C15.4085 25.9503 14.1801 24.42 14.1801 21.3604C14.1801 19.9326 14.4867 18.8105 15.1018 17.9941C15.7151 17.1787 16.6368 16.7705 17.8652 16.7705H24.5667V15.8252C24.5667 14.4153 23.8773 13.7108 22.5003 13.7108H18.1831V11.207H23.6731C25.0323 11.207 26.065 11.6058 26.7723 12.4034C27.4796 13.201 27.8332 14.2479 27.8332 15.5468V23.4465C27.8332 25.116 26.9952 25.9503 25.321 25.9503H17.8652ZM30.3361 25.9503V16.7705C30.3361 14.8235 30.8289 13.4089 31.8165 12.5276C32.8032 11.6472 34.3015 11.207 36.3114 11.207H38.9328V13.7108H37.1485C35.8637 13.7108 34.9523 14.0259 34.4125 14.6561C33.8726 15.2872 33.6026 16.2785 33.6026 17.6329V25.9503H30.3361ZM41.2578 25.9503V11.207H44.5244V25.9503H41.2578ZM19.1218 23.4465H23.7286C24.2873 23.4465 24.5667 23.1691 24.5667 22.6123V19.2742H19.1218C18.0796 19.2742 17.5586 19.9693 17.5586 21.3604C17.5586 22.7515 18.0796 23.4465 19.1218 23.4465ZM41.2578 9.25915V6.255H44.5244V9.25915H41.2578Z" fill="white"/>
</g>
<defs>
<clipPath id="clip0_2043_1166">
<rect width="72.4014" height="36.6708" fill="white" transform="translate(0.756836 0.172363)"/>
</clipPath>
</defs>
</svg>
