<svg width="138" height="138" viewBox="0 0 138 138" fill="none" xmlns="http://www.w3.org/2000/svg">
<path d="M69.175 138C66.999 138 65.159 136.424 64.632 134.313C62.952 127.583 59.736 120.426 54.984 112.844C49.354 103.739 41.328 95.295 30.906 87.508C21.842 80.657 12.777 75.985 3.714 73.493C1.566 72.903 0 70.999 0 68.773C0 66.59 1.506 64.708 3.605 64.109C12.492 61.571 21.053 57.451 29.289 51.75C38.752 45.161 46.658 37.255 53.008 28.031C58.624 19.814 62.48 11.688 64.574 3.651C65.124 1.546 66.977 0 69.152 0C71.352 0 73.219 1.58 73.754 3.714C74.963 8.532 76.852 13.463 79.422 18.508C82.656 24.737 86.789 30.726 91.82 36.477C96.971 42.107 102.722 47.198 109.07 51.75C117.367 57.631 125.801 61.763 134.373 64.145C136.476 64.73 138 66.602 138 68.784C138 71 136.43 72.887 134.294 73.473C128.86 74.963 123.267 77.366 117.516 80.68C110.568 84.753 104.099 89.604 98.109 95.234C92.12 100.745 87.208 106.555 83.375 112.664C78.614 120.262 75.394 127.474 73.718 134.301C73.197 136.419 71.355 138 69.175 138Z" fill="black"/>
</svg>
