<svg width="30" height="30" viewBox="0 0 30 30" fill="none" xmlns="http://www.w3.org/2000/svg">
<path d="M13.3794 11.638C13.7584 11.554 14.0544 11.258 14.1384 10.879L15.0244 6.89299C15.2564 5.84899 16.7444 5.84899 16.9764 6.89299L17.8624 10.879C17.9464 11.258 18.2424 11.554 18.6214 11.638L22.6074 12.524C23.6514 12.756 23.6514 14.244 22.6074 14.476L18.6214 15.362C18.2424 15.446 17.9464 15.742 17.8624 16.121L16.9764 20.107C16.7444 21.151 15.2564 21.151 15.0244 20.107L14.1384 16.121C14.0544 15.742 13.7584 15.446 13.3794 15.362L9.39335 14.476C8.34935 14.244 8.34935 12.756 9.39335 12.524L13.3794 11.638Z" fill="white"/>
<path d="M8.0612 19.82C8.4402 19.736 8.73619 19.44 8.82019 19.061L9.09119 17.841C9.18819 17.403 9.8122 17.403 9.9092 17.841L10.1802 19.061C10.2642 19.44 10.5602 19.736 10.9392 19.82L12.1592 20.091C12.5972 20.188 12.5972 20.812 12.1592 20.909L10.9392 21.18C10.5602 21.264 10.2642 21.56 10.1802 21.939L9.9092 23.159C9.8122 23.597 9.18819 23.597 9.09119 23.159L8.82019 21.939C8.73619 21.56 8.4402 21.264 8.0612 21.18L6.8412 20.909C6.4032 20.812 6.4032 20.188 6.8412 20.091L8.0612 19.82Z" fill="white"/>
</svg>
