<svg width="168" height="180" viewBox="0 0 168 180" fill="none" xmlns="http://www.w3.org/2000/svg">
<path d="M101.823 31.4283C87.1622 53.3499 89.7988 57.3911 112.625 44.1833C86.7153 62.6289 89.61 64.3255 120.358 56.1829C95.6125 65.3013 94.7496 70.5716 120.979 73.3039C89.1745 72.9979 88.6194 75.7205 118.28 87.2042C92.9019 80.0359 91.3283 84.3884 110.943 102.016C85.393 83.0739 82.3032 84.2282 99.5487 110.953C83.2311 90.2376 79.6335 94.0898 85.1409 119.879C75.6037 89.5352 72.3676 88.3192 70.6104 120.076C69.5848 93.7252 65.3945 92.8545 54.6905 116.956C64.8114 86.8029 60.9943 86.9899 40.9057 111.65C55.566 89.7287 53.8253 84.5262 30.9992 97.7339C56.9089 79.2883 53.7956 77.8109 23.0478 85.9535C47.7931 76.8351 49.269 71.6953 23.0397 68.963C53.8364 69.2519 53.8445 66.1763 24.1838 54.6926C49.5621 61.8609 52.5588 57.8349 32.9443 40.207C58.4942 59.1493 59.5663 55.0646 42.3208 28.3401C58.6384 49.0552 63.7723 48.2655 58.2649 22.4758C67.8021 52.8201 70.9276 53.0512 72.6847 21.2939C73.7103 47.6452 78.0552 49.5883 88.7592 25.4863C78.6383 55.6398 81.7339 56.0886 101.823 31.4283Z" fill="#FEDE7E"/>
<path d="M54.77 87.0784C63.5052 96.3998 78.1429 96.875 87.4643 88.1397C96.7857 79.4044 97.2608 64.7668 88.5255 55.4454C79.7902 46.124 65.1526 45.6489 55.8312 54.3841C46.5098 63.1194 46.0347 77.757 54.77 87.0784Z" fill="#FFBF00"/>
<path d="M141.344 74.5232C141.344 74.5232 122.208 75.2091 113.698 75.2091C104.59 75.2091 88.4891 74.5232 88.4891 74.5232C73.7382 74.5232 63.0676 86.1248 64.664 100.585C64.664 100.585 65.7496 116.421 65.7496 124.339C65.7496 133.223 64.664 150.99 64.664 150.99C64.12 166.633 72.1118 180.344 88.4891 178.459C88.4891 178.459 105.954 178.107 114.862 178.107C123.572 178.107 141.344 178.459 141.344 178.459C157.361 179.993 166.713 164.875 165.476 150.99C165.476 150.99 164.073 133.121 164.073 124.538C164.073 116.319 165.476 100.585 165.476 100.585C167.064 86.1248 155.958 75.2262 141.344 74.5232Z" fill="#00DDB3"/>
<path d="M141.344 74.5232C141.344 74.5232 122.208 75.2091 113.698 75.2091C104.59 75.2091 88.4891 74.5232 88.4891 74.5232C73.7382 74.5232 63.0676 86.1248 64.664 100.585C64.664 100.585 65.7496 116.421 65.7496 124.339C65.7496 133.223 64.664 150.99 64.664 150.99C64.12 166.633 72.1118 180.344 88.4891 178.459C88.4891 178.459 105.954 178.107 114.862 178.107C123.572 178.107 141.344 178.459 141.344 178.459C157.361 179.993 166.713 164.875 165.476 150.99C165.476 150.99 164.073 133.121 164.073 124.538C164.073 116.319 165.476 100.585 165.476 100.585C167.064 86.1248 155.958 75.2262 141.344 74.5232Z" stroke="#014242" stroke-width="1.86632"/>
<path d="M111.906 113.341C112.572 113.229 112.365 113.25 112.266 113.271C112.197 113.286 112.18 113.3 112.536 113.271" stroke="#014242" stroke-width="5.79176" stroke-linecap="round" stroke-linejoin="round"/>
<path d="M102.511 142.401L100.045 120.994L118.211 120.926L116.428 142.268C116.392 142.678 116.204 143.06 115.903 143.341C115.601 143.621 115.206 143.778 114.795 143.783L104.162 143.866C103.755 143.87 103.36 143.723 103.055 143.452C102.75 143.182 102.556 142.807 102.511 142.401Z" fill="white"/>
<path d="M102.511 142.401L100.045 120.994L118.211 120.926L116.428 142.268C116.392 142.678 116.204 143.06 115.903 143.341C115.601 143.621 115.206 143.778 114.795 143.783L104.162 143.866C103.755 143.87 103.36 143.723 103.055 143.452C102.75 143.182 102.556 142.807 102.511 142.401Z" stroke="#014242" stroke-width="1.38357" stroke-linecap="round" stroke-linejoin="round"/>
<path d="M102.933 140.415L116.903 140.493C117.262 140.496 117.608 140.365 117.876 140.126C118.144 139.887 118.314 139.557 118.353 139.2L119.844 125.317C119.866 125.114 119.844 124.908 119.782 124.714C119.719 124.52 119.616 124.341 119.479 124.19C119.343 124.038 119.176 123.917 118.99 123.834C118.804 123.752 118.602 123.71 118.398 123.71L101.046 123.783C100.84 123.784 100.637 123.828 100.45 123.914C100.263 124 100.096 124.125 99.9606 124.281C99.8255 124.436 99.7252 124.619 99.6666 124.817C99.608 125.015 99.5923 125.223 99.6204 125.427L101.511 139.166C101.56 139.511 101.729 139.826 101.991 140.056C102.252 140.285 102.586 140.412 102.933 140.415Z" fill="#FF3C00"/>
<path d="M102.933 140.415L116.903 140.493C117.262 140.496 117.608 140.365 117.876 140.126C118.144 139.887 118.314 139.557 118.353 139.2L119.844 125.317C119.866 125.114 119.844 124.908 119.782 124.714C119.719 124.52 119.616 124.341 119.479 124.19C119.343 124.038 119.176 123.917 118.99 123.834C118.804 123.752 118.602 123.71 118.398 123.71L101.046 123.783C100.84 123.784 100.637 123.828 100.45 123.914C100.263 124 100.096 124.125 99.9606 124.281C99.8255 124.436 99.7252 124.619 99.6666 124.817C99.608 125.015 99.5923 125.223 99.6204 125.427L101.511 139.166C101.56 139.511 101.729 139.826 101.991 140.056C102.252 140.285 102.586 140.412 102.933 140.415Z" stroke="#014242" stroke-width="1.38357" stroke-linecap="round" stroke-linejoin="round"/>
<path d="M113.575 128.362C113.499 128.321 113.416 128.296 113.33 128.288C111.973 128.113 110.703 129.243 109.381 131.656C108.333 133.545 107.392 134.493 106.758 134.456C106.584 134.44 106.411 134.492 106.276 134.602C106.141 134.712 106.054 134.871 106.035 135.045C106.032 135.131 106.045 135.216 106.075 135.297C106.105 135.377 106.15 135.451 106.209 135.513C106.267 135.576 106.338 135.626 106.416 135.661C106.494 135.696 106.578 135.716 106.664 135.717C108.005 135.8 109.254 134.643 110.587 132.236C111.603 130.362 112.53 129.451 113.144 129.529C113.315 129.557 113.49 129.519 113.633 129.421C113.776 129.324 113.876 129.176 113.913 129.006C113.923 128.921 113.915 128.834 113.89 128.752C113.866 128.67 113.826 128.593 113.773 128.526C113.718 128.459 113.651 128.403 113.575 128.362Z" fill="white"/>
<path d="M118.712 115.37L119.497 115.364C119.7 115.362 119.901 115.401 120.089 115.478C120.277 115.555 120.449 115.667 120.593 115.81C120.738 115.954 120.852 116.124 120.931 116.312C121.009 116.499 121.05 116.701 121.051 116.905L121.073 119.689C121.076 120.099 120.916 120.493 120.629 120.785C120.342 121.077 119.951 121.242 119.542 121.245L98.7678 121.407C98.3592 121.41 97.966 121.251 97.6748 120.963C97.3837 120.676 97.2181 120.285 97.2149 119.875L97.1933 117.09C97.1902 116.681 97.3496 116.287 97.6363 115.994C97.923 115.702 98.3133 115.536 98.7222 115.533L99.503 115.527C99.4948 115.47 99.4904 115.413 99.4893 115.356L99.482 114.405C99.4792 114.045 99.6193 113.698 99.8714 113.441C100.123 113.184 100.467 113.038 100.827 113.034L117.348 112.906C117.707 112.903 118.054 113.044 118.31 113.297C118.566 113.55 118.712 113.895 118.714 114.255L118.722 115.2C118.722 115.256 118.718 115.314 118.712 115.37Z" fill="#007D7C"/>
<path d="M118.712 115.37L119.497 115.364C119.7 115.362 119.901 115.401 120.089 115.478C120.277 115.555 120.449 115.667 120.593 115.81C120.738 115.954 120.852 116.124 120.931 116.312C121.009 116.499 121.05 116.701 121.051 116.905L121.073 119.689C121.076 120.099 120.916 120.493 120.629 120.785C120.342 121.077 119.951 121.242 119.542 121.245L98.7678 121.407C98.3592 121.41 97.966 121.251 97.6748 120.963C97.3837 120.676 97.2181 120.285 97.2149 119.875L97.1933 117.09C97.1902 116.681 97.3496 116.287 97.6363 115.994C97.923 115.702 98.3133 115.536 98.7222 115.533L99.503 115.527C99.4948 115.47 99.4904 115.413 99.4893 115.356L99.482 114.405C99.4792 114.045 99.6193 113.698 99.8714 113.441C100.123 113.184 100.467 113.038 100.827 113.034L117.348 112.906C117.707 112.903 118.054 113.044 118.31 113.297C118.566 113.55 118.712 113.895 118.714 114.255L118.722 115.2C118.722 115.256 118.718 115.314 118.712 115.37Z" stroke="#014242" stroke-width="1.38357"/>
<path d="M68.207 126.503C83.0933 134.336 90.5578 117.284 107.718 126.944" stroke="#014242" stroke-width="9.0467" stroke-linecap="round" stroke-linejoin="round"/>
<path d="M163.352 119.691C147.68 133.183 125.202 122.254 118.404 137.62" stroke="#014242" stroke-width="9.0467" stroke-linecap="round" stroke-linejoin="round"/>
<path d="M132.681 98.9522C132.681 98.9522 134.392 101.142 137.31 101.226C140.228 101.309 142.148 99.2233 142.148 99.2233C142.148 99.2233 140.295 101.37 137.377 101.286C134.459 101.203 132.681 98.9522 132.681 98.9522Z" fill="#014242"/>
<path d="M132.681 98.9522C132.681 98.9522 134.392 101.142 137.31 101.226C140.228 101.309 142.148 99.2233 142.148 99.2233C142.148 99.2233 140.295 101.37 137.377 101.286C134.459 101.203 132.681 98.9522 132.681 98.9522Z" stroke="#014242" stroke-width="3.45723" stroke-linecap="round" stroke-linejoin="round"/>
<path d="M85.9197 97.613C85.9197 97.613 87.63 99.8029 90.548 99.8864C93.466 99.97 95.386 97.8841 95.386 97.8841C95.386 97.8841 93.5331 100.031 90.6151 99.9472C87.6972 99.8636 85.9197 97.613 85.9197 97.613Z" fill="#014242"/>
<path d="M85.9197 97.613C85.9197 97.613 87.63 99.8029 90.548 99.8864C93.466 99.97 95.386 97.8841 95.386 97.8841C95.386 97.8841 93.5331 100.031 90.6151 99.9472C87.6972 99.8636 85.9197 97.613 85.9197 97.613Z" stroke="#014242" stroke-width="3.45723" stroke-linecap="round" stroke-linejoin="round"/>
</svg>
