<svg width="167" height="13" viewBox="0 0 167 13" fill="none" xmlns="http://www.w3.org/2000/svg">
<g clip-path="url(#clip0_2043_1174)">
<g clip-path="url(#clip1_2043_1174)">
<path d="M4.6831 12.0004C3.103 12.0004 1.69826 11.4516 0.470703 10.3558L1.19215 9.50437C1.74278 10.0041 2.2925 10.3703 2.84222 10.6056C3.40193 10.8401 4.0298 10.9582 4.72671 10.9582C5.41454 10.9582 5.96881 10.7973 6.39041 10.473C6.81383 10.1404 7.02372 9.70972 7.02372 9.18181C7.02372 8.68297 6.83745 8.28681 6.46492 7.99242C6.09147 7.69893 5.38456 7.44542 4.34418 7.23008C3.11572 6.96658 2.23344 6.60858 1.69281 6.15881C1.15308 5.70813 0.884129 5.06755 0.884129 4.23615C0.884129 3.42384 1.20215 2.75418 1.84 2.22445C2.47877 1.69654 3.28836 1.43213 4.2724 1.43213C5.63625 1.43213 6.84381 1.85282 7.89419 2.69512L7.21726 3.58921C6.30409 2.84686 5.31187 2.47432 4.24151 2.47432C3.58366 2.47432 3.05393 2.63606 2.6505 2.95862C2.24889 3.2721 2.04626 3.67371 2.04626 4.16255C2.04626 4.67048 2.23889 5.07209 2.62142 5.36648C3.01486 5.65997 3.7563 5.92347 4.84574 6.15881C6.01515 6.41322 6.8629 6.77122 7.39353 7.23008C7.93326 7.67985 8.20312 8.30135 8.20312 9.09367C8.20312 9.96414 7.8742 10.6683 7.21726 11.208C6.55851 11.736 5.71439 12.0004 4.6831 12.0004ZM20.5832 12.0149C19.2766 12.0149 18.2362 11.6278 17.4602 10.8555C16.6842 10.0723 16.2963 8.97101 16.2963 7.55264V1.57933H17.4602V7.47904C17.4602 8.58484 17.7346 9.44168 18.2852 10.0477C18.845 10.6447 19.62 10.9436 20.6113 10.9436C21.5836 10.9436 22.345 10.6538 22.8947 10.0768C23.4444 9.50074 23.7188 8.65844 23.7188 7.55264V1.57933H24.8828V7.46541C24.8828 8.93194 24.4948 10.0577 23.7188 10.8401C22.9429 11.6233 21.898 12.0149 20.5832 12.0149ZM33.5247 11.8532V1.57842H37.3828C38.5604 1.57842 39.4972 1.8719 40.1959 2.45888C40.8928 3.04585 41.2408 3.84817 41.2408 4.86583C41.2408 5.93256 40.8537 6.76032 40.0778 7.34548C39.3118 7.93336 38.3496 8.22684 37.1911 8.22684H34.6869V11.8523H33.5247V11.8532ZM34.6869 7.17193H37.2347C38.0888 7.17193 38.7712 6.96658 39.2818 6.55497C39.8025 6.13337 40.0632 5.57638 40.0632 4.88128C40.0632 4.16801 39.8124 3.61829 39.3118 3.23757C38.8202 2.84686 38.1478 2.6506 37.2937 2.6506H34.6869V7.17193ZM49.2513 11.8532V1.57842H56.7038V2.63515H50.4152V6.14245H56.0405V7.19919H50.4152V10.7955H56.7774V11.8523H49.2513V11.8532ZM65.0087 11.8532V1.57842H69.441C70.7076 1.57842 71.6844 1.92097 72.3713 2.60608C72.9019 3.13399 73.1673 3.81909 73.1673 4.66048C73.1673 5.48188 72.911 6.147 72.4022 6.65674C71.8906 7.16557 71.2128 7.49812 70.3678 7.65441L73.5361 11.8523H72.106L69.1166 7.86067H66.1717V11.8523H65.0078L65.0087 11.8532ZM66.1717 6.81938H69.3383C70.1233 6.81938 70.7612 6.62766 71.2528 6.24604C71.7434 5.86441 71.9888 5.34104 71.9888 4.67593C71.9888 4.0408 71.7534 3.5465 71.2818 3.19396C70.8203 2.83232 70.177 2.6506 69.3519 2.6506H66.1717V6.81938ZM81.5412 11.8532V1.57842H82.7051V6.14336H88.6539V1.57842H89.8178V11.8541H88.6539V7.23099H82.7051V11.8541H81.5412V11.8532ZM102.745 12.0149C101.438 12.0149 100.398 11.6278 99.6219 10.8555C98.8469 10.0723 98.4589 8.97101 98.4589 7.55264V1.57933H99.6219V7.47904C99.6219 8.58484 99.8972 9.44168 100.447 10.0477C101.008 10.6447 101.782 10.9436 102.774 10.9436C103.745 10.9436 104.507 10.6538 105.056 10.0768C105.606 9.50074 105.881 8.65844 105.881 7.55264V1.57933H107.045V7.46541C107.045 8.93194 106.657 10.0577 105.881 10.8401C105.105 11.6233 104.06 12.0149 102.745 12.0149ZM115.686 11.8532V1.57842H116.864L120.619 7.18465L124.375 1.57842H125.553V11.8541H124.389V3.53015L120.635 9.03461H120.576L116.82 3.5456V11.8523H115.686V11.8532ZM133.479 11.8532L138.176 1.50664H139.266L143.964 11.8523H142.713L141.505 9.13729H135.893L134.671 11.8532H133.479ZM136.35 8.096H141.048L138.707 2.85595L136.35 8.096ZM151.887 11.8532V1.57842H152.977L159.471 9.81149V1.57842H160.606V11.8541H159.679L153.022 3.42929V11.8541H151.887V11.8532Z" fill="white"/>
</g>
</g>
<defs>
<clipPath id="clip0_2043_1174">
<rect width="166.429" height="11.2833" fill="white" transform="translate(0.453125 0.866089)"/>
</clipPath>
<clipPath id="clip1_2043_1174">
<rect width="160.827" height="11.2833" fill="white" transform="translate(0.453125 0.866089)"/>
</clipPath>
</defs>
</svg>
