<svg width="91" height="25" viewBox="0 0 91 25" fill="none" xmlns="http://www.w3.org/2000/svg">
<g clip-path="url(#clip0_2043_1170)">
<g clip-path="url(#clip1_2043_1170)">
<path d="M21.416 16.9026L21.4037 16.8622L29.447 9.57773V6.06781H16.5418V9.57773H24.2508L24.2631 9.61163L16.298 16.9026V20.4126H29.5769V16.9026H21.416ZM37.4987 5.73358C36.0093 5.73358 34.7957 5.95483 33.8589 6.39922C32.9861 6.78523 32.2508 7.42357 31.7471 8.23044C31.266 9.04108 30.9647 9.94304 30.8602 10.878L34.7768 11.4231C34.9181 10.5974 35.2015 10.0127 35.6261 9.66812C36.1091 9.30752 36.705 9.12581 37.3095 9.15312C38.1032 9.15312 38.6803 9.36307 39.039 9.78392C39.393 10.2038 39.5738 10.7857 39.5738 11.554V11.9353H35.8097C33.8928 11.9353 32.5163 12.3561 31.6793 13.1969C30.8414 14.0376 30.4233 15.1477 30.4252 16.526C30.4252 17.9383 30.8432 18.9899 31.6793 19.6791C32.5144 20.3683 33.5651 20.711 34.8324 20.7063C36.4028 20.7063 37.6108 20.1725 38.4562 19.1029C38.9552 18.4467 39.3111 17.6944 39.5032 16.8942H39.6463L40.1858 20.4041H43.7334V11.5153C43.7334 9.67848 43.2447 8.25586 42.2656 7.24657C41.2864 6.23728 39.6971 5.73358 37.4987 5.73358ZM38.7387 16.6908C38.1757 17.155 37.4385 17.3856 36.5215 17.3856C35.7645 17.3856 35.2382 17.2548 34.9444 16.993C34.6535 16.7426 34.4916 16.3763 34.5 15.9941C34.4831 15.6344 34.6168 15.2842 34.8682 15.0253C35.1403 14.773 35.5046 14.6411 35.8765 14.6619H39.5795V14.9038C39.5945 15.5968 39.2838 16.2577 38.7387 16.6908ZM65.1874 6.06781H60.9958V20.4144H65.1874V6.06781ZM89.9348 6.06781C88.7514 6.06781 87.8174 6.48113 87.1348 7.30777C86.6452 7.90186 86.2724 8.77934 86.0172 9.94116H85.8939L85.346 6.06781H81.7663V20.4126H85.9579V13.0556C85.9579 12.1292 86.1773 11.4174 86.617 10.9222C87.0557 10.4289 87.8664 10.1803 89.047 10.1803H90.6381V6.06781H89.9348ZM77.6106 6.53668C76.6314 5.96048 75.3971 5.67426 73.9076 5.67426C71.5614 5.67426 69.7255 6.3352 68.3998 7.65707C67.0742 8.978 66.4114 10.7998 66.4114 13.1216C66.3775 14.5263 66.6882 15.9178 67.3143 17.1757C67.8895 18.2998 68.784 19.2319 69.8855 19.8561C70.9955 20.4907 72.3165 20.8089 73.8474 20.8099C75.1721 20.8099 76.2783 20.6084 77.1662 20.2045C78.0003 19.843 78.7272 19.2752 79.278 18.555C79.8014 17.8498 80.1903 17.0542 80.4257 16.2087L76.8131 15.2089C76.6615 15.7587 76.3687 16.2596 75.9639 16.6635C75.5562 17.0665 74.8717 17.2689 73.9133 17.2689C72.7731 17.2689 71.9229 16.9459 71.3637 16.3001C70.9579 15.8331 70.7027 15.1665 70.5907 14.3022H80.4803C80.5207 13.8992 80.5424 13.5603 80.5424 13.2882V12.3947C80.5659 11.1943 80.3155 10.0033 79.809 8.91397C79.3335 7.91881 78.5671 7.09028 77.6106 6.53668ZM73.7862 9.09474C75.4856 9.09474 76.4497 9.92138 76.6775 11.5765H70.6651C70.7611 11.0239 70.9918 10.5032 71.3383 10.0607C71.89 9.41485 72.7053 9.09286 73.7862 9.09474ZM63.1359 0.286035C62.4994 0.263439 61.8818 0.498815 61.4214 0.936614C60.9695 1.37818 60.7247 1.98827 60.7482 2.61814C60.7247 3.25083 60.9685 3.86563 61.4223 4.31285C61.8761 4.76194 62.4966 5.00297 63.1359 4.97849C63.7714 5.00297 64.3871 4.761 64.8353 4.31285C65.2787 3.85998 65.516 3.24801 65.4915 2.61814C65.5207 1.9911 65.2825 1.38195 64.8353 0.939439C64.3853 0.495049 63.7704 0.258731 63.1378 0.286977L63.1359 0.286035ZM54.4778 5.67426C53.0505 5.67426 51.9028 6.11771 51.0357 7.00461C50.3936 7.66272 49.9238 8.64282 49.6234 9.94775H49.4888L48.9408 6.07346H45.3612V24.5373H49.5528V16.9328H49.7053C49.8343 17.4393 50.0132 17.9326 50.241 18.4034C50.5969 19.1726 51.1788 19.8166 51.9094 20.2487C52.6682 20.6583 53.5231 20.8626 54.3865 20.84C56.1414 20.84 57.4774 20.164 58.3954 18.8111C59.3134 17.4591 59.7719 15.5723 59.7719 13.1517C59.7719 10.812 59.3284 8.98176 58.4406 7.65895C57.5518 6.33614 56.2309 5.67426 54.4778 5.67426ZM54.9024 16.0703C54.4138 16.7708 53.6493 17.1211 52.608 17.1211C51.738 17.1615 50.902 16.784 50.3606 16.1061C49.8174 15.432 49.5472 14.5093 49.5481 13.3381V13.0641C49.5481 11.875 49.8192 10.9646 50.3606 10.3328C50.901 9.70107 51.6505 9.38849 52.608 9.39508C53.6672 9.39508 54.4373 9.72743 54.9175 10.394C55.3977 11.0587 55.6377 11.987 55.6377 13.178C55.6406 14.4095 55.3967 15.3736 54.9062 16.0703H54.9024ZM14.6748 16.9017H0.171875V20.4163H14.6748V16.9017Z" fill="white"/>
</g>
</g>
<defs>
<clipPath id="clip0_2043_1170">
<rect width="90.2667" height="24.4472" fill="white" transform="translate(0.171875 0.28418)"/>
</clipPath>
<clipPath id="clip1_2043_1170">
<rect width="90.2667" height="24.2494" fill="white" transform="translate(0.171875 0.28418)"/>
</clipPath>
</defs>
</svg>
